<svg xmlns="http://www.w3.org/2000/svg" viewBox="0 0 30 41"><path fill="#e3e3e3" d="M30 25.7c-.1-2.5-.4-4.6-.7-5.8-.1-.6-.9-.7-1.3-.3-1.7 1.9-3.7 3-3.7 3C26 10.1 18.5 3.3 15.5 1.1c-.5-.4-1.2 0-1.2.5-.3 7-4.6 11.9-4.6 11.9C8.7 12 7 11 6 10.5c-.4-.2-1 0-1.1.4C3.5 16.6 0 20 0 26.4 0 33.9 6.7 40 15 40c8.5 0 15.2-6.6 15-14.3zM14.4 38.5c-4.5-.3-7.7-4.1-7-8.1.4-2.7 2.3-4.5 3.2-6.9.1-.1.2-.2.4-.2.4.1 1.1.5 1.9 1.3 0 0 2.4-2.1 3.3-5.8.1-.2.4-.3.5-.1 1 1.4 3.3 5.5 2.8 11 0 0 1.3-.3 2.3-1.7.1-.2.5-.1.5.1.2.6.4 1.7.4 3.3-.1 4.2-3.8 7.4-8.3 7.1z"/></svg>